<?xml version="1.0" standalone="no"?>
<!DOCTYPE svg PUBLIC "-//W3C//DTD SVG 20010904//EN"
 "http://www.w3.org/TR/2001/REC-SVG-20010904/DTD/svg10.dtd">
<svg version="1.0" xmlns="http://www.w3.org/2000/svg"
 width="600.000000pt" height="335.000000pt" viewBox="0 0 600.000000 335.000000"
 preserveAspectRatio="xMidYMid meet">
<g transform="translate(0.000000,335.000000) scale(0.100000,-0.100000)"
fill="#000000" stroke="none">
<path d="M2925 3179 c-341 -25 -645 -168 -900 -424 -134 -133 -198 -220 -274
-371 -103 -205 -149 -389 -158 -625 -11 -296 35 -507 164 -762 199 -391 568
-672 1003 -764 157 -33 396 -35 546 -5 727 147 1226 787 1191 1526 -8 168 -29
283 -77 427 -123 372 -380 671 -726 847 -199 102 -359 142 -624 155 -25 2 -90
0 -145 -4z m327 -30 c15 -1 25 -5 23 -9 -2 -4 7 -5 21 -2 15 3 29 0 33 -7 4
-6 20 -11 37 -12 35 -2 125 -28 138 -40 6 -5 18 -9 28 -9 10 0 18 -4 18 -10 0
-5 7 -7 15 -4 18 7 20 -12 3 -20 -7 -3 -3 -3 9 -1 29 8 74 -5 66 -18 -3 -5 -2
-7 4 -4 10 6 71 -21 98 -43 8 -6 20 -8 26 -4 7 4 9 3 6 -3 -4 -5 5 -16 18 -23
13 -7 21 -18 18 -23 -4 -6 0 -8 10 -4 12 4 14 2 10 -11 -6 -15 -5 -16 12 -2
10 8 16 10 13 5 -4 -6 2 -17 14 -24 16 -10 19 -10 13 1 -4 7 5 1 19 -15 14
-15 29 -28 33 -30 5 -1 7 -5 6 -9 -2 -4 5 -4 14 -1 10 4 14 2 10 -4 -3 -5 7
-20 24 -32 16 -12 27 -26 24 -31 -3 -6 0 -7 8 -5 7 3 19 -5 27 -19 7 -14 16
-24 19 -23 6 2 22 -13 69 -65 24 -26 24 -26 4 -37 -15 -8 -23 -8 -28 1 -5 7
-2 8 7 3 8 -4 4 2 -9 14 -12 12 -20 26 -17 32 4 5 -2 12 -12 16 -10 3 -28 18
-41 32 -13 14 -20 19 -17 11 4 -8 -4 -2 -18 15 -14 16 -23 33 -21 37 3 4 -1 5
-9 2 -9 -3 -22 4 -30 17 -9 12 -26 27 -39 34 -13 6 -22 17 -20 24 1 7 -2 10
-8 6 -5 -3 -13 1 -16 9 -3 9 -10 16 -16 16 -5 0 -6 -6 -3 -12 4 -7 0 -5 -8 4
-8 10 -18 14 -22 10 -5 -4 -5 -1 -1 6 4 7 1 12 -9 12 -8 0 -18 6 -21 14 -3 8
-17 17 -31 21 -14 3 -23 11 -20 19 3 8 -3 12 -17 12 -13 -1 -20 4 -18 13 3 12
0 12 -12 2 -11 -9 -16 -9 -22 0 -5 8 -3 9 6 4 9 -5 11 -4 6 4 -4 6 -11 9 -16
6 -5 -3 -21 0 -37 7 -15 6 -30 12 -33 13 -28 7 -80 31 -80 36 0 4 -10 7 -22 7
-13 0 -30 2 -38 4 -8 3 -27 8 -42 13 -16 4 -26 10 -23 14 2 4 -9 7 -25 6 -17
-1 -27 2 -23 8 3 6 2 7 -4 4 -5 -3 -38 -1 -74 4 -72 12 -381 20 -375 10 2 -3
-6 -6 -17 -7 -12 -1 -44 -4 -72 -9 -27 -4 -63 -7 -78 -7 -16 -1 -24 -4 -17 -8
13 -8 -20 -19 -79 -26 -19 -3 -41 -10 -48 -16 -7 -6 -13 -7 -13 -2 0 5 -4 3
-9 -4 -4 -7 -24 -14 -44 -15 -29 -2 -33 -4 -24 -16 7 -9 8 -12 1 -8 -6 3 -24
-3 -42 -13 -22 -14 -32 -16 -36 -7 -2 7 -5 5 -5 -4 -1 -16 -28 -31 -61 -33 -8
-1 -15 -7 -15 -14 0 -18 -83 -65 -97 -56 -7 5 -8 2 -3 -6 6 -10 4 -12 -10 -6
-15 5 -16 4 -5 -9 11 -13 10 -14 -4 -9 -9 4 -16 2 -14 -4 2 -5 -1 -10 -6 -10
-5 0 -13 -6 -17 -14 -8 -11 -10 -11 -18 0 -7 11 -9 10 -14 -3 -4 -9 -3 -13 3
-10 6 3 10 2 10 -4 0 -5 -9 -13 -20 -16 -11 -4 -18 -11 -15 -16 4 -5 0 -9 -8
-9 -8 0 -25 -16 -38 -35 -13 -19 -30 -35 -36 -35 -7 0 -13 -8 -13 -17 0 -15
-2 -16 -10 -3 -8 13 -10 13 -10 -1 0 -9 -7 -19 -15 -23 -8 -3 -15 -12 -15 -21
0 -8 -5 -15 -11 -15 -5 0 -8 -4 -5 -9 3 -4 -3 -16 -13 -25 -18 -17 -20 -17
-30 3 -10 17 -9 20 4 15 11 -4 13 -2 9 9 -3 8 0 18 7 23 8 5 10 3 5 -7 -4 -8
-1 -5 8 5 8 10 13 23 10 28 -3 5 0 7 8 6 7 -2 12 2 11 9 -2 6 6 15 17 18 11 4
18 10 15 15 -3 4 2 11 11 14 8 3 12 10 9 16 -4 6 1 7 11 3 11 -4 15 -2 11 4
-4 6 8 23 26 39 67 60 137 114 147 114 6 0 8 5 5 10 -6 9 8 14 28 11 4 0 7 3
7 9 0 5 5 10 12 10 6 0 25 10 42 23 17 13 38 27 46 32 13 8 13 7 0 -10 -14
-17 -14 -18 8 -6 12 7 20 16 17 22 -6 8 2 11 21 8 4 0 10 3 13 8 8 13 94 53
112 53 8 0 24 7 36 15 16 12 22 12 26 2 3 -7 6 -5 6 5 1 11 6 15 16 12 8 -4
22 -1 30 6 8 6 19 9 25 5 5 -3 10 -1 10 6 0 7 3 10 6 7 3 -3 29 0 57 8 63 17
60 17 51 2 -4 -7 2 -5 13 5 12 11 31 16 51 13 18 -2 34 0 37 4 4 6 276 5 357
-1z m18 -64 c309 -51 610 -223 818 -471 271 -322 385 -760 308 -1186 -118
-653 -689 -1139 -1341 -1141 -597 -2 -1120 376 -1310 946 -59 177 -70 250 -70
462 0 162 3 205 23 293 89 396 294 695 618 904 133 86 341 166 498 192 112 19
340 19 456 1z m909 -489 c9 -11 9 -15 -1 -19 -9 -4 -8 -6 3 -6 23 -1 60 -56
52 -78 -6 -16 -5 -17 12 -3 17 14 18 13 12 -2 -4 -11 -2 -18 5 -18 6 0 9 -3 5
-6 -3 -3 12 -32 33 -63 21 -31 40 -68 42 -81 2 -14 7 -31 11 -37 5 -7 5 -18 1
-25 -4 -6 -3 -8 4 -4 6 3 13 -6 17 -24 4 -16 11 -32 16 -35 5 -4 9 -19 9 -35
0 -16 5 -32 11 -36 6 -3 9 -17 6 -30 -2 -13 0 -21 4 -18 5 3 9 -1 9 -10 0 -22
-11 -46 -22 -46 -5 0 -6 4 -3 10 7 12 -25 120 -37 120 -4 0 -5 6 -3 13 3 7 -4
30 -15 51 -10 21 -17 43 -14 47 3 5 0 9 -6 9 -6 0 -9 4 -5 9 3 5 -2 17 -12 26
-9 9 -17 24 -18 34 -1 9 -6 26 -13 37 -6 12 -8 25 -4 29 4 3 1 5 -7 3 -8 -2
-17 6 -19 17 -2 11 -9 23 -15 27 -6 3 -12 14 -13 23 -1 10 -12 27 -23 39 -17
18 -18 25 -8 36 8 8 8 11 0 6 -18 -10 -42 4 -36 21 4 11 2 14 -5 9 -13 -8 -17
6 -5 17 10 11 19 8 32 -7z m-2267 -55 c-8 -5 -13 -11 -12 -15 0 -4 -13 -25
-31 -46 -18 -22 -33 -48 -34 -60 -1 -11 -16 -38 -34 -60 -18 -23 -26 -40 -19
-40 8 0 9 -3 3 -8 -20 -14 -77 -160 -69 -174 3 -5 0 -8 -5 -8 -6 0 -11 5 -11
12 0 6 -3 9 -6 6 -3 -4 0 -16 6 -28 9 -16 9 -20 1 -15 -8 5 -10 -1 -5 -21 5
-21 4 -25 -6 -19 -9 5 -11 4 -6 -4 4 -6 3 -17 -2 -24 -9 -11 -13 -37 -29 -172
-9 -72 -9 -227 -1 -325 4 -47 8 -98 8 -113 0 -16 4 -26 9 -23 5 4 7 -3 4 -14
-3 -11 0 -27 7 -35 6 -8 9 -19 5 -25 -3 -5 -1 -10 5 -10 6 0 10 -6 9 -12 -1
-7 1 -20 4 -28 4 -8 8 -24 10 -35 1 -11 5 -24 8 -30 4 -5 5 -18 4 -28 -2 -9 1
-17 6 -17 5 0 9 -9 9 -21 0 -11 5 -17 10 -14 14 9 12 -8 -2 -26 -7 -8 -12 -13
-11 -11 1 2 -7 20 -18 39 -11 19 -21 52 -22 73 -1 21 -5 36 -9 34 -7 -5 -13
14 -46 148 -13 54 -16 80 -8 88 7 7 6 10 -2 10 -8 0 -13 19 -13 58 -1 31 -1
93 -2 137 -1 44 2 112 6 150 4 39 8 79 8 90 1 11 6 36 12 55 10 35 16 69 18
103 0 9 4 17 8 17 8 0 19 40 24 86 2 22 10 39 77 179 49 100 68 127 82 119 6
-4 4 4 -3 17 -11 21 -11 23 3 11 13 -10 18 -10 24 -1 5 8 3 9 -6 4 -8 -5 -11
-3 -8 6 3 8 11 13 17 11 7 -1 10 2 6 8 -4 6 -4 18 -1 27 6 15 8 15 24 -1 14
-13 14 -18 4 -25z m2533 -546 c13 -67 20 -156 20 -257 0 -58 3 -104 8 -101 4
2 7 -3 7 -12 0 -9 -4 -14 -8 -11 -5 3 -8 -22 -6 -54 1 -39 -2 -58 -9 -53 -6 4
-8 -3 -4 -19 7 -25 -15 -153 -24 -143 -3 2 -4 -8 -1 -24 2 -16 -1 -32 -7 -35
-6 -4 -11 -20 -11 -35 0 -15 -4 -31 -9 -36 -11 -11 -42 -93 -43 -112 -1 -7 -5
-13 -10 -13 -4 0 -8 -11 -8 -25 0 -16 -9 -30 -27 -40 -16 -9 -20 -14 -10 -11
16 5 16 3 2 -25 -9 -16 -20 -27 -26 -24 -5 4 -8 3 -7 -2 5 -16 -25 -74 -36
-70 -6 3 -10 10 -8 16 1 8 -2 9 -10 5 -9 -5 -9 -2 1 10 8 9 21 14 29 11 12 -4
13 -3 2 10 -10 12 -10 15 0 15 7 0 10 7 6 15 -3 8 1 20 8 28 19 18 51 79 51
97 1 8 6 14 12 13 6 -1 14 4 17 13 3 8 2 12 -4 9 -17 -11 -11 11 10 35 11 13
20 35 20 50 0 14 4 30 9 36 6 5 13 32 16 59 4 28 11 54 16 59 5 6 9 21 9 34 0
13 3 21 8 19 4 -3 6 27 5 65 0 39 2 66 6 59 8 -13 5 187 -4 314 -4 44 -7 85
-7 90 0 6 -4 18 -10 28 -6 13 -6 23 3 33 15 18 16 16 24 -21z m-2650 -977 c-6
-4 -2 -8 8 -8 20 0 41 -45 33 -73 -3 -14 -1 -16 8 -8 10 8 18 1 32 -28 10 -22
22 -37 26 -35 4 3 5 -3 1 -12 -4 -11 -2 -15 4 -11 11 7 28 -20 24 -36 -1 -5 3
-6 8 -2 12 7 33 -29 23 -40 -4 -3 -1 -5 7 -3 7 2 16 -3 19 -11 3 -9 0 -11 -9
-6 -8 5 -11 4 -6 -1 5 -5 13 -10 18 -10 5 -1 14 -2 19 -3 6 0 10 -8 10 -17 0
-8 4 -13 9 -9 5 3 12 1 15 -4 4 -5 2 -12 -4 -16 -6 -4 -8 -11 -5 -16 13 -19
-12 -8 -33 16 -12 14 -20 25 -17 25 2 0 -7 12 -20 26 -14 15 -22 31 -19 36 3
4 0 7 -7 6 -7 -2 -18 7 -24 19 -7 13 -14 20 -17 17 -3 -3 -10 9 -16 25 -6 17
-16 31 -21 31 -6 0 -20 19 -32 41 -17 34 -18 43 -7 51 10 8 9 9 -4 5 -9 -3
-21 0 -26 6 -11 13 -12 17 -12 44 0 9 -3 13 -7 9 -12 -12 -31 48 -21 67 8 16
12 13 31 -25 14 -27 18 -46 12 -50z m2436 -135 c10 -11 10 -14 2 -9 -8 4 -13
2 -13 -4 0 -6 -5 -8 -12 -4 -8 5 -7 0 2 -11 12 -15 12 -17 1 -10 -11 6 -13 4
-8 -9 5 -13 3 -17 -7 -13 -11 4 -13 1 -9 -11 3 -9 3 -14 -2 -10 -4 4 -23 -17
-43 -47 -20 -30 -38 -54 -41 -53 -20 2 -31 -3 -26 -12 3 -5 -16 -29 -42 -54
-26 -25 -64 -61 -84 -80 -23 -24 -39 -32 -45 -26 -7 7 -17 5 -30 -6 -18 -15
-18 -15 4 -4 26 13 29 3 5 -16 -21 -16 -47 -18 -38 -4 3 6 -1 7 -10 3 -13 -5
-14 -8 -3 -15 10 -7 9 -11 -6 -23 -11 -8 -26 -15 -33 -15 -7 0 -13 -5 -13 -10
0 -6 -6 -9 -12 -8 -7 2 -12 -3 -10 -10 1 -8 -2 -11 -6 -8 -12 7 -104 -39 -95
-48 4 -4 -1 -4 -11 0 -15 6 -17 4 -11 -6 5 -9 4 -11 -4 -6 -6 4 -18 2 -26 -4
-8 -6 -19 -9 -25 -5 -6 4 -9 1 -8 -7 2 -7 -4 -12 -13 -10 -9 1 -22 -4 -28 -12
-6 -8 -20 -12 -30 -9 -11 3 -30 -1 -42 -8 -13 -7 -30 -12 -36 -11 -7 2 -13 -1
-13 -6 0 -5 -14 -9 -31 -10 -17 0 -36 -5 -42 -10 -20 -17 -185 -30 -322 -26
-166 4 -185 5 -180 14 2 3 -12 5 -32 3 -19 -1 -44 2 -55 8 -11 6 -37 12 -59
14 -22 3 -52 13 -67 23 -15 11 -33 17 -41 14 -8 -2 -11 0 -8 5 3 5 1 15 -4 23
-8 13 -9 12 -7 -2 2 -9 1 -18 -2 -19 -11 -5 -50 13 -50 23 0 5 -7 8 -15 5 -8
-4 -17 -2 -21 4 -3 6 -13 8 -21 4 -12 -4 -13 -2 -5 8 9 11 7 13 -10 13 -14 -1
-22 6 -24 22 -4 20 -2 21 19 10 12 -7 30 -19 40 -27 9 -8 20 -11 24 -8 3 4 11
2 18 -3 6 -5 21 -11 32 -13 12 -2 28 -8 35 -15 8 -6 17 -9 20 -6 3 3 22 -4 42
-15 19 -11 43 -18 51 -15 8 4 15 2 15 -3 0 -5 12 -10 28 -11 15 -1 47 -6 72
-11 25 -6 64 -12 88 -15 24 -3 48 -9 54 -12 7 -5 8 -2 3 6 -6 9 0 10 26 5 50
-12 117 -9 289 11 14 1 27 3 30 4 3 1 14 2 25 1 17 -2 17 0 5 8 -11 8 -5 9 23
6 27 -4 36 -2 31 7 -4 6 -3 8 3 5 5 -3 32 1 59 9 26 8 54 12 61 10 8 -3 10 1
6 11 -4 10 -2 14 4 10 15 -9 44 3 37 14 -7 12 3 11 29 -3 21 -11 21 -10 7 7
-8 10 -10 16 -3 12 6 -4 15 -2 18 4 4 5 13 8 21 5 8 -3 14 -1 14 5 0 6 7 9 15
5 8 -3 14 0 12 7 -1 7 8 11 23 9 20 -2 22 -1 10 7 -13 9 -12 11 5 12 11 1 26
2 33 2 10 -1 10 2 0 15 -9 10 -9 13 -1 9 6 -4 14 -3 18 3 4 6 11 8 16 5 5 -4
12 1 15 9 3 9 28 28 55 43 27 14 49 30 49 35 0 4 6 7 13 6 6 -2 11 2 10 9 -1
6 5 14 13 17 12 5 15 2 10 -9 -3 -9 -2 -13 4 -10 6 3 10 12 10 18 1 17 50 71
58 62 4 -3 -4 -15 -18 -25 -24 -19 -24 -19 -2 -13 12 3 23 10 24 17 0 6 2 18
2 26 1 8 7 14 14 13 7 -2 9 4 5 14 -4 10 -2 14 4 10 5 -4 15 5 22 19 7 16 17
24 26 20 8 -3 17 0 21 6 5 7 2 8 -6 3 -7 -4 1 13 19 38 18 26 36 47 41 47 6 0
10 7 10 15 0 8 5 15 10 15 6 0 10 7 10 15 0 8 5 15 11 15 5 0 7 5 4 10 -10 17
12 11 26 -7z m-2174 -216 c-3 -8 1 -14 9 -14 7 0 11 5 8 11 -3 6 4 0 15 -14
11 -14 21 -29 21 -33 0 -5 3 -6 8 -4 10 7 32 -19 24 -29 -4 -4 0 -5 8 -2 22 8
42 -16 27 -32 -9 -10 -9 -11 0 -6 18 10 73 -21 74 -42 0 -9 3 -12 5 -5 6 14
44 -15 44 -34 0 -6 4 -15 10 -18 6 -3 7 1 4 9 -3 9 -1 16 5 16 6 0 11 -5 11
-11 0 -6 7 -9 15 -6 8 4 17 1 21 -5 5 -7 2 -8 -6 -3 -9 5 -11 4 -6 -3 4 -7 14
-12 21 -12 8 0 19 -9 25 -20 12 -23 4 -25 -34 -10 -14 5 -26 17 -27 27 0 10
-3 13 -5 6 -4 -8 -26 3 -64 29 -33 22 -57 44 -54 49 3 5 -3 6 -12 2 -13 -5
-16 -3 -11 10 4 11 2 14 -8 11 -7 -3 -18 4 -25 15 -6 12 -15 21 -21 21 -6 0
-7 -4 -4 -10 11 -18 -1 -11 -21 12 -12 15 -14 19 -4 13 9 -6 2 2 -14 17 -17
14 -35 24 -40 21 -5 -4 -6 -1 -2 5 4 7 3 12 -3 12 -5 0 -9 9 -8 20 1 11 5 20
10 20 5 0 7 -6 4 -13z"/>
<path d="M3410 3096 c0 -2 7 -7 16 -10 8 -3 12 -2 9 4 -6 10 -25 14 -25 6z"/>
<path d="M2290 2920 c-8 -5 -12 -12 -9 -15 4 -3 12 1 19 10 14 17 11 19 -10 5z"/>
<path d="M2061 2756 c-7 -8 -8 -17 -3 -20 6 -3 12 3 15 14 6 24 4 25 -12 6z"/>
<path d="M4105 2650 c3 -5 8 -10 11 -10 2 0 4 5 4 10 0 6 -5 10 -11 10 -5 0
-7 -4 -4 -10z"/>
<path d="M2925 3064 c-473 -52 -865 -323 -1075 -743 -99 -198 -143 -394 -144
-631 -1 -332 102 -620 314 -883 183 -227 466 -397 772 -463 117 -26 391 -26
503 -1 314 71 573 223 760 447 221 265 328 562 328 910 -1 589 -355 1098 -901
1294 -150 54 -407 86 -557 70z m310 -35 c106 -14 236 -49 228 -62 -4 -6 0 -8
11 -4 10 4 44 -7 84 -27 37 -18 73 -31 81 -28 8 2 11 0 8 -5 -4 -5 20 -22 52
-37 52 -24 85 -47 146 -104 12 -10 26 -17 32 -15 8 3 11 -4 8 -17 -2 -11 0
-18 5 -15 15 9 52 -15 46 -30 -2 -7 3 -19 12 -27 11 -9 14 -10 8 0 -13 22 5
13 37 -20 18 -18 25 -28 17 -24 -8 5 2 -6 23 -24 21 -18 36 -34 33 -37 -2 -3
9 -17 26 -32 21 -19 27 -30 20 -35 -7 -4 -12 -2 -12 4 0 6 -5 8 -12 4 -7 -5
-9 -2 -5 8 6 16 -20 30 -55 31 -10 0 -15 6 -11 16 2 9 -3 5 -11 -9 -8 -14 -15
-20 -16 -14 0 7 -7 11 -16 10 -9 0 -18 7 -19 17 -2 9 1 17 6 17 6 0 2 11 -8
24 -10 13 -21 20 -24 15 -7 -12 -54 41 -54 60 0 8 -6 15 -13 17 -7 1 -8 0 -2
-3 18 -8 11 -23 -11 -23 -15 0 -19 5 -15 16 3 8 2 12 -3 9 -5 -3 -12 3 -16 14
-3 11 -17 21 -34 23 -20 3 -27 0 -24 -8 2 -7 -1 -15 -8 -20 -8 -5 -10 -3 -4 7
5 8 4 11 -1 6 -5 -5 -10 -13 -10 -18 -1 -5 -2 -13 -3 -19 -2 -15 -18 -12 -24
4 -9 22 3 55 18 50 15 -6 15 13 0 36 -5 8 -10 19 -10 24 0 5 -15 10 -33 10
-32 1 -33 1 -12 -16 11 -9 26 -18 32 -20 7 -3 0 -21 -19 -49 -44 -64 -48 -84
-22 -103 29 -20 49 -9 85 49 31 48 32 49 53 36 10 -7 5 -21 -28 -65 -46 -62
-75 -75 -119 -52 -52 27 -55 64 -11 136 30 48 30 52 13 64 -10 8 -18 28 -19
47 l-2 34 -71 1 c-39 0 -69 -2 -67 -6 2 -4 -2 -16 -10 -26 -14 -18 -14 -18
-11 2 3 13 -1 21 -10 21 -10 0 -11 -4 -3 -14 9 -10 8 -13 -2 -14 -10 0 -11 -2
-1 -6 6 -2 12 -11 12 -19 0 -9 -5 -12 -12 -8 -6 4 -8 3 -4 -4 3 -6 2 -13 -4
-17 -6 -4 -8 -11 -5 -16 4 -5 -1 -16 -9 -25 -13 -13 -14 -19 -4 -37 7 -12 11
-25 10 -30 -1 -4 1 -6 5 -5 5 1 25 -6 47 -17 31 -15 44 -16 67 -8 16 6 27 7
24 2 -3 -5 0 -19 7 -31 7 -13 11 -27 10 -31 -1 -5 2 -6 8 -2 5 3 10 1 10 -5 0
-6 4 -9 9 -6 5 4 23 -8 40 -25 29 -29 31 -29 29 -8 -2 16 3 24 16 27 11 2 16
0 11 -7 -3 -6 -11 -9 -16 -6 -5 4 -9 2 -9 -4 0 -5 5 -13 12 -17 7 -5 5 -12 -8
-22 -19 -14 -18 -14 1 -9 14 4 28 -5 49 -29 17 -21 22 -32 12 -28 -9 3 -16 11
-16 16 0 6 -7 7 -16 4 -10 -4 -22 1 -31 11 -13 16 -13 16 -3 -4 12 -25 30 -39
30 -24 0 8 7 7 20 -1 14 -9 16 -14 7 -20 -9 -6 -9 -8 0 -8 6 0 15 5 18 10 11
17 25 11 43 -18 11 -19 24 -28 40 -27 12 1 22 -2 22 -7 0 -5 5 -6 10 -3 6 3
10 -1 10 -10 0 -9 -5 -13 -10 -10 -6 4 -9 -3 -7 -15 2 -12 9 -25 17 -30 7 -4
10 -12 7 -18 -4 -5 3 -9 15 -8 12 0 23 -5 25 -11 3 -7 0 -13 -7 -13 -6 0 -8 6
-4 13 4 7 3 9 -2 4 -5 -5 -9 -13 -9 -19 0 -6 -10 -13 -22 -14 -16 -3 -25 4
-35 26 -7 17 -17 30 -21 30 -5 0 -5 5 -1 12 4 6 3 8 -3 5 -6 -4 -19 3 -29 16
-11 12 -12 16 -4 10 13 -10 18 -8 28 8 7 11 8 19 2 19 -5 0 -10 -4 -10 -10 0
-21 -21 -7 -92 62 -40 39 -76 71 -80 70 -4 -1 -5 5 -1 14 4 10 1 15 -8 13 -22
-3 -50 12 -42 24 3 6 1 7 -5 3 -7 -4 -12 -1 -12 8 0 9 -3 15 -7 14 -15 -5 -73
24 -67 33 3 5 -4 9 -16 9 -12 0 -18 4 -15 10 4 6 -1 7 -11 3 -13 -5 -15 -3 -9
7 5 8 4 11 -2 7 -6 -4 -33 2 -59 12 -100 38 -137 48 -187 50 -10 1 -16 4 -14
9 3 4 -18 7 -46 8 -97 1 -117 4 -117 15 0 5 6 7 13 3 6 -4 9 -4 5 1 -4 4 -3
16 3 26 9 17 12 18 33 4 17 -11 35 -14 66 -9 31 5 44 3 51 -7 6 -10 9 -10 9
-1 0 19 20 14 20 -5 0 -16 2 -16 10 -3 9 13 12 13 23 -1 8 -11 19 -14 32 -9
11 4 27 3 35 -3 8 -6 12 -8 9 -4 -4 5 5 20 18 34 19 18 28 21 33 13 4 -7 7 2
5 20 -1 18 -8 36 -15 40 -7 4 -10 13 -6 19 5 7 1 8 -10 4 -12 -4 -15 -3 -10 5
4 7 14 12 22 12 8 0 13 5 12 12 -2 7 2 12 9 13 6 0 15 4 20 8 4 5 4 8 -2 7
-24 -5 -27 1 -9 15 18 15 18 15 0 8 -14 -5 -17 -3 -11 7 5 9 4 11 -4 6 -6 -4
-8 -12 -5 -18 4 -5 -5 -2 -20 7 -14 9 -24 21 -21 25 2 4 -14 6 -37 5 -29 -2
-47 -9 -59 -24 -10 -13 -20 -17 -24 -11 -3 5 -1 10 6 10 7 0 3 10 -9 23 -12
13 -28 24 -35 24 -6 0 -31 3 -53 7 -44 8 -74 -9 -74 -41 0 -12 -7 -9 -25 11
-22 24 -49 31 -95 27 -46 -5 -60 -13 -67 -40 -8 -28 -9 -29 -28 -14 -13 10
-14 14 -4 10 9 -3 16 0 16 6 0 8 -23 12 -63 13 -35 1 -62 -2 -60 -5 2 -3 -10
-17 -27 -30 l-29 -25 6 25 c6 20 5 21 -4 6 -6 -9 -9 -21 -5 -26 3 -5 1 -12 -4
-16 -6 -3 -8 -13 -5 -23 5 -14 4 -14 -4 -2 -6 8 -8 18 -5 23 3 4 -4 11 -16 14
-11 3 -18 10 -15 15 4 6 -2 5 -14 -1 -11 -6 -29 -8 -39 -5 -15 5 -16 4 -3 -6
10 -8 11 -13 4 -16 -13 -6 10 -84 29 -96 8 -5 7 -11 -2 -22 -11 -13 -11 -16 0
-16 11 0 11 -2 -1 -9 -8 -6 -17 -8 -21 -5 -4 2 -10 0 -14 -6 -3 -5 -12 -10
-18 -10 -7 0 -6 4 3 10 11 7 11 10 2 10 -10 0 -10 5 -2 20 6 11 7 20 3 19 -4
-1 -16 -1 -27 0 -16 1 -15 4 8 22 14 11 26 26 25 32 0 9 -2 8 -6 0 -3 -10 -10
-10 -24 -2 -11 5 -16 15 -13 21 4 7 3 8 -4 4 -7 -4 -12 -1 -12 6 0 9 -3 9 -10
-2 -5 -8 -13 -15 -17 -16 -30 -2 -73 -17 -73 -26 0 -6 -7 -7 -16 -4 -9 4 -23
1 -31 -5 -11 -10 -11 -14 2 -29 9 -10 15 -22 13 -28 -2 -6 5 -17 16 -25 15
-11 16 -14 3 -14 -15 0 -22 8 -26 32 -3 15 -33 45 -44 45 -5 0 1 -9 14 -20 13
-10 19 -19 13 -20 -5 0 -15 5 -21 11 -20 20 -54 -38 -49 -83 5 -38 5 -38 -17
-23 -30 21 -40 19 -78 -15 -26 -23 -30 -30 -16 -30 11 0 15 -4 11 -12 -5 -7
-3 -8 6 -3 10 6 12 4 7 -9 -6 -14 -3 -17 10 -12 10 4 14 4 10 0 -4 -4 0 -15 9
-25 8 -9 16 -26 17 -37 1 -13 6 -18 16 -14 10 4 12 1 6 -8 -5 -8 -4 -11 2 -7
6 4 16 0 23 -8 17 -20 33 -19 55 5 14 16 16 23 7 32 -19 19 -14 30 9 23 14 -5
19 -3 15 3 -7 12 28 35 37 25 3 -3 14 -2 24 2 10 5 20 9 23 9 3 1 19 11 36 23
16 12 42 25 57 28 15 4 32 16 38 26 10 19 31 27 27 10 -2 -5 2 -8 7 -7 6 0 9
7 9 13 -1 7 2 11 6 8 5 -3 12 -1 15 5 4 6 15 8 26 5 11 -4 19 -2 19 5 0 6 -5
8 -11 5 -7 -5 -7 -2 0 11 5 11 12 27 15 37 4 11 11 15 18 11 9 -6 9 -9 0 -12
-7 -2 -12 -7 -12 -10 0 -10 93 -8 109 2 10 7 12 5 6 -5 -4 -8 8 1 28 20 35 33
38 34 50 16 9 -11 19 -15 27 -10 9 5 10 1 6 -16 -6 -21 -5 -21 9 4 9 15 18 27
21 27 3 0 2 -5 -2 -12 -5 -7 -3 -8 5 -4 7 5 10 15 7 23 -4 9 -1 13 6 10 7 -2
12 -15 10 -28 -2 -22 -2 -23 11 -5 10 13 16 16 21 7 4 -6 12 -9 17 -6 5 4 9 2
9 -3 0 -17 -13 -22 -29 -10 -13 10 -14 10 -3 -2 20 -23 14 -31 -20 -28 -21 2
-32 8 -30 16 1 8 -2 11 -8 7 -6 -3 -8 -10 -5 -15 7 -11 -10 -15 -109 -29 -38
-6 -73 -15 -76 -22 -5 -6 -17 -8 -31 -4 -19 5 -21 4 -9 -4 12 -9 10 -11 -10
-12 -14 -1 -28 -1 -32 0 -5 0 -8 -4 -8 -10 0 -5 -5 -7 -11 -4 -6 4 -20 -2 -32
-13 -31 -28 -99 -60 -117 -54 -8 2 -12 1 -8 -3 11 -12 -11 -35 -34 -35 -10 0
-17 -4 -14 -8 3 -5 -6 -15 -19 -22 -14 -7 -25 -17 -25 -22 0 -4 -7 -8 -16 -8
-8 0 -12 -4 -9 -10 3 -5 0 -10 -8 -10 -25 0 -27 13 -5 37 12 13 20 23 17 24
-2 0 -12 2 -22 4 -14 3 -16 0 -7 -10 8 -10 4 -18 -17 -33 -23 -17 -25 -22 -14
-36 11 -13 9 -19 -16 -42 -15 -14 -28 -30 -28 -34 0 -5 -4 -12 -9 -17 -5 -5
-6 -2 -2 7 4 8 1 7 -8 -4 -8 -10 -20 -15 -27 -10 -8 5 -10 3 -5 -5 5 -7 15
-10 25 -7 12 5 11 2 -3 -9 -11 -8 -17 -15 -13 -15 5 0 2 -6 -5 -14 -7 -8 -16
-12 -20 -9 -5 2 -8 -1 -8 -8 0 -7 -8 -21 -17 -32 -11 -12 -12 -17 -4 -12 10 6
12 4 7 -4 -5 -7 -14 -10 -22 -7 -12 4 -12 2 -4 -14 8 -15 8 -20 -1 -18 -7 2
-16 -10 -20 -27 -13 -46 -46 -105 -54 -97 -4 4 -3 -3 4 -15 9 -19 8 -24 -9
-33 -16 -8 -18 -15 -10 -35 5 -13 5 -25 0 -27 -4 -2 -15 -57 -23 -123 -16
-125 -11 -258 13 -340 6 -22 12 -54 13 -72 1 -17 5 -29 8 -27 4 2 10 -12 13
-31 4 -19 11 -35 16 -35 6 0 10 -6 10 -13 0 -8 7 -28 16 -45 8 -18 12 -37 8
-44 -4 -7 -4 -10 1 -6 4 4 21 -10 36 -32 32 -43 36 -55 17 -44 -8 4 -10 3 -5
-2 5 -5 14 -9 20 -9 7 0 11 -12 11 -27 -1 -15 2 -25 7 -22 4 2 6 12 3 22 -2 9
1 6 8 -8 7 -14 43 -56 80 -94 37 -38 65 -74 61 -80 -3 -6 -3 -8 2 -4 5 5 14
-1 22 -12 8 -11 19 -20 25 -20 7 0 3 7 -8 16 -10 8 -12 12 -4 8 27 -13 50 -36
44 -46 -3 -4 -2 -8 3 -7 17 3 29 -2 53 -21 21 -17 21 -19 5 -14 -16 5 -17 4
-5 -4 10 -8 19 -7 29 1 12 10 13 9 7 -2 -6 -9 -5 -12 5 -9 8 3 31 -6 51 -18
20 -13 49 -26 65 -30 15 -3 51 -14 78 -24 59 -21 149 -32 262 -34 45 0 79 -4
76 -9 -3 -5 3 -5 13 1 11 5 45 13 77 17 32 4 89 19 125 32 37 14 76 25 87 26
11 1 29 9 39 19 11 10 23 19 28 19 4 1 13 3 18 4 6 1 15 3 21 4 5 0 7 5 4 11
-3 6 4 10 16 10 19 0 20 -2 8 -17 -13 -16 -12 -17 3 -4 10 7 15 17 13 21 -7
12 62 63 74 56 5 -4 13 -1 17 5 5 8 3 9 -6 4 -9 -5 -11 -4 -6 3 4 7 14 12 22
12 8 0 13 4 10 8 -3 4 15 24 38 43 24 18 59 55 77 81 19 25 38 44 43 41 5 -4
6 -1 2 5 -4 6 4 18 18 27 16 11 23 22 19 32 -5 12 -3 14 7 8 10 -6 12 -4 7 9
-4 10 -3 15 3 11 6 -3 10 -1 10 5 0 6 5 8 12 4 7 -4 8 -3 4 5 -4 6 -13 9 -19
5 -7 -3 -4 1 7 10 10 8 15 19 11 25 -3 6 -2 11 4 11 6 0 13 11 17 25 3 14 10
22 15 19 5 -3 6 3 2 12 -4 12 -3 15 5 10 8 -5 10 -1 5 10 -4 11 1 22 12 30 10
8 14 14 8 14 -8 0 -5 18 7 53 22 62 32 130 32 212 0 44 2 53 8 35 6 -19 7 -15
6 20 -1 25 -6 51 -10 59 -5 8 -3 17 5 22 10 6 11 11 3 17 -9 6 -20 75 -26 160
-1 6 -5 12 -9 12 -4 0 -10 17 -13 38 -3 20 -8 44 -9 54 -2 9 -8 23 -15 30 -17
21 -44 89 -48 118 -3 25 11 50 28 50 5 0 6 -5 2 -11 -3 -6 -1 -15 5 -19 7 -4
13 -16 14 -28 0 -12 3 -19 5 -17 8 8 44 -34 38 -44 -4 -6 -3 -19 3 -28 6 -12
6 -24 -1 -38 -6 -11 -7 -17 -3 -13 9 9 37 -40 30 -52 -3 -5 0 -12 6 -16 8 -4
9 -3 5 4 -10 16 2 15 19 -2 8 -7 11 -17 7 -21 -4 -4 4 -2 17 5 12 6 31 10 41
7 14 -3 17 -1 13 11 -5 11 -3 13 8 7 8 -4 11 -5 7 0 -4 4 0 14 8 23 9 9 19 11
22 6 4 -5 13 -9 20 -8 6 1 17 2 24 3 6 0 8 4 5 8 -4 3 -3 11 2 17 11 15 21 57
11 51 -11 -7 -22 24 -13 37 3 7 1 8 -5 4 -11 -6 -16 6 -13 27 1 6 -39 12 -61
8 -11 -1 -10 17 1 23 15 9 21 65 11 92 -6 15 -22 35 -35 46 -14 11 -23 23 -21
27 3 4 -12 5 -32 3 -28 -2 -33 -1 -22 7 10 7 11 11 3 11 -9 0 -7 6 5 18 9 10
24 16 32 14 8 -3 4 4 -10 16 -16 15 -19 20 -7 16 11 -4 17 -1 17 10 0 9 6 16
13 16 9 0 9 2 -1 9 -11 7 -11 9 2 14 9 4 16 2 16 -3 0 -6 0 -12 0 -15 0 -3 9
-14 21 -26 26 -26 52 -86 43 -101 -4 -6 -3 -8 3 -5 16 10 66 -97 58 -124 -5
-19 -4 -21 5 -9 9 12 11 8 7 -17 -3 -28 -1 -31 12 -20 12 10 14 9 9 -10 -4
-13 -2 -23 4 -23 5 0 7 -4 4 -9 -3 -4 2 -23 12 -42 9 -19 17 -53 17 -76 0 -22
3 -39 6 -37 9 5 19 -94 24 -252 4 -95 2 -134 -5 -124 -12 19 -13 5 -1 -18 5
-10 5 -40 0 -72 -5 -30 -10 -65 -11 -77 -1 -13 -6 -23 -10 -23 -4 0 -8 -9 -8
-21 0 -31 -30 -130 -38 -125 -4 2 -8 -7 -9 -20 -4 -46 -6 -54 -16 -54 -5 0 -6
-7 -3 -16 3 -8 2 -12 -4 -9 -9 5 -15 -25 -11 -49 1 -5 -6 -3 -15 5 -12 9 -15
10 -10 1 10 -17 -16 -73 -31 -68 -7 3 -15 0 -19 -6 -4 -6 -3 -8 3 -5 7 4 10
-3 9 -17 0 -13 -3 -22 -6 -20 -2 3 -11 -10 -20 -28 -9 -18 -21 -32 -28 -31 -6
2 -9 -4 -6 -12 5 -13 -6 -20 -28 -16 -4 0 -5 -8 -3 -19 2 -11 -1 -20 -6 -20
-6 0 -7 -5 -3 -12 4 -7 3 -8 -4 -4 -7 4 -12 2 -12 -4 0 -7 -7 -10 -15 -7 -8 4
-17 1 -21 -5 -4 -7 -3 -8 4 -4 8 5 12 -1 12 -15 0 -17 -3 -19 -14 -10 -11 9
-15 8 -20 -4 -4 -11 -2 -14 7 -9 6 4 3 -3 -8 -17 -32 -38 -128 -135 -121 -121
4 6 3 12 -3 12 -5 0 -13 -9 -16 -20 -4 -11 -11 -18 -16 -15 -5 4 -9 1 -9 -5 0
-6 -3 -9 -7 -7 -5 3 -14 -1 -21 -9 -7 -8 -9 -14 -5 -14 4 0 0 -5 -10 -11 -9
-5 -22 -7 -29 -3 -6 4 -8 3 -5 -3 4 -6 -5 -19 -19 -28 -18 -12 -24 -13 -19 -4
3 8 -1 5 -9 -5 -14 -18 -21 -15 -17 7 1 5 -3 6 -8 2 -6 -3 -8 -12 -5 -20 6
-14 -52 -46 -109 -60 -15 -4 -27 -11 -27 -16 0 -5 -12 -9 -26 -9 -14 0 -23 -4
-20 -8 4 -7 -79 -37 -133 -47 -10 -2 -34 -8 -53 -13 -18 -5 -46 -8 -61 -6 -18
2 -25 -1 -21 -8 5 -7 2 -9 -8 -6 -8 3 -33 3 -56 -2 -25 -4 -42 -3 -42 2 0 5
-6 6 -12 1 -7 -4 -47 -8 -90 -8 -65 0 -75 2 -65 14 10 12 9 12 -12 2 -14 -8
-39 -11 -65 -7 -22 4 -58 9 -80 11 -21 3 -43 8 -49 12 -5 3 -20 8 -31 9 -43 7
-125 29 -131 36 -4 4 2 4 13 1 11 -2 22 -1 25 4 3 4 -14 9 -36 9 -58 2 -59 3
-52 14 3 5 0 7 -8 4 -8 -3 -18 -1 -22 5 -3 6 -14 11 -24 11 -9 0 -22 5 -29 12
-6 6 -18 13 -26 14 -20 3 -66 35 -66 46 0 6 -7 8 -15 4 -8 -3 -15 -1 -15 4 0
6 -4 10 -10 10 -5 0 -18 8 -29 18 -10 9 -32 28 -49 41 -17 14 -29 29 -26 33 3
5 2 8 -3 7 -19 -3 -33 2 -33 12 0 5 5 7 10 4 18 -11 11 1 -12 21 -19 15 -20
16 -9 2 7 -10 9 -18 4 -18 -15 0 -63 47 -56 54 4 3 -1 6 -11 6 -9 0 -22 11
-28 25 -6 14 -17 25 -24 25 -7 0 -16 5 -20 12 -5 7 -3 8 7 3 8 -5 2 4 -13 19
-15 16 -25 32 -22 37 3 5 -2 9 -10 9 -8 0 -18 5 -22 12 -5 7 -3 8 7 3 11 -7
12 -6 2 7 -7 8 -11 18 -8 21 3 4 2 5 -1 3 -13 -10 -77 77 -73 100 0 4 -4 10
-9 13 -13 8 -46 75 -34 67 6 -4 14 -1 18 5 4 7 3 9 -2 6 -6 -3 -15 -3 -20 1
-18 12 -41 67 -40 94 1 15 -1 25 -5 23 -12 -8 -54 114 -65 190 -3 17 -7 46
-10 65 -7 45 -15 140 -14 160 2 36 -1 97 -6 115 -4 15 -3 16 4 6 7 -9 9 0 9
30 -1 78 17 210 33 240 6 10 10 31 10 48 0 16 5 33 10 36 6 3 10 15 10 26 0
11 3 18 8 16 4 -3 8 5 8 17 1 12 15 50 32 84 17 34 28 62 25 62 -3 0 2 9 11
19 11 12 15 25 10 33 -4 7 -4 10 1 6 4 -4 19 14 33 41 17 36 28 48 40 44 10
-4 13 -2 8 5 -4 7 -2 12 4 12 7 0 10 7 7 15 -4 8 -1 17 5 21 7 5 8 2 3 -6 -5
-9 -4 -11 4 -6 6 4 9 12 5 17 -7 12 36 58 50 55 6 -2 8 -1 4 1 -15 9 -8 25 8
19 8 -3 12 -2 9 3 -3 5 3 16 13 23 11 7 19 15 19 18 -4 23 104 97 124 84 4 -2
6 4 4 15 -3 18 11 36 59 71 18 13 19 13 12 0 -4 -8 1 -4 12 10 17 21 22 22 36
11 9 -8 19 -11 23 -7 3 3 2 6 -4 6 -6 0 -14 7 -17 16 -4 12 -2 15 9 10 8 -3
15 -1 15 5 0 6 5 7 10 4 6 -3 10 -1 10 6 0 7 3 10 6 6 3 -3 15 3 27 14 24 22
39 25 31 5 -3 -8 -1 -17 5 -21 6 -3 9 0 6 7 -3 7 -1 18 3 24 11 17 171 86 182
79 6 -3 10 -1 10 5 0 7 7 9 15 6 9 -3 32 1 53 8 50 19 92 26 209 32 54 3 99 7
101 8 4 4 95 -3 187 -15z m-206 -105 c21 -26 20 -64 0 -72 -14 -6 -11 -22 12
-53 20 -29 20 -29 0 -29 -11 0 -29 14 -41 30 -29 41 -50 39 -50 -5 0 -25 -4
-35 -15 -35 -21 0 -23 11 -27 106 l-3 81 52 2 c45 1 54 -2 72 -25z m169 16
c14 0 22 -6 22 -16 0 -14 -7 -16 -45 -11 -43 6 -45 5 -45 -18 0 -22 4 -25 35
-25 24 0 35 -5 35 -15 0 -11 -11 -15 -40 -15 -33 0 -40 -4 -40 -19 0 -19 25
-31 68 -31 13 0 22 -6 22 -15 0 -16 -29 -19 -92 -9 l-37 6 5 47 c3 25 7 66 10
90 l6 43 36 -6 c20 -3 47 -6 60 -6z m-366 -31 c26 -14 48 -67 41 -102 -7 -35
-47 -67 -85 -67 -38 0 -88 48 -88 85 0 31 24 81 42 88 23 9 69 7 90 -4z m530
-7 c21 -14 25 -21 17 -29 -9 -9 -18 -8 -35 4 -24 15 -54 12 -54 -7 0 -5 18
-21 41 -35 33 -21 40 -31 37 -53 -2 -16 -13 -32 -29 -41 -23 -13 -30 -12 -73
9 -44 21 -46 24 -31 39 11 12 18 13 23 4 4 -6 20 -16 35 -22 22 -9 29 -8 34 5
3 8 4 16 2 17 -45 30 -79 61 -79 73 0 22 37 54 63 54 12 0 34 -8 49 -18z
m-129 -28 c-4 -11 -9 -12 -19 -3 -18 15 -18 14 5 16 14 1 18 -3 14 -13z m-574
-53 c11 -32 21 -70 21 -84 0 -43 -70 -78 -84 -42 -3 10 1 15 13 15 40 0 45 25
18 92 -14 35 -23 66 -20 71 12 21 33 1 52 -52z m398 7 c-3 -8 -6 -5 -6 6 -1
11 2 17 5 13 3 -3 4 -12 1 -19z m180 7 c0 -8 -7 -17 -15 -20 -24 -9 -29 5 -8
21 24 17 23 17 23 -1z m389 -4 c0 -15 -3 -17 -13 -9 -7 6 -10 14 -7 19 9 15
20 10 20 -10z m-53 -2 c42 -22 58 -41 46 -55 -9 -11 -17 -9 -41 11 -16 14 -34
23 -39 19 -17 -10 -9 -33 16 -50 48 -32 41 -104 -11 -104 -30 0 -81 28 -89 49
-11 28 12 33 38 7 27 -27 57 -34 57 -14 0 7 -14 27 -31 44 -25 26 -30 38 -25
59 4 14 17 30 29 35 29 12 25 12 50 -1z m-1060 -14 c4 -9 -7 -22 -33 -38 -36
-21 -38 -25 -27 -42 13 -17 15 -17 42 1 38 25 54 26 48 4 -3 -10 -18 -24 -34
-30 -31 -13 -36 -29 -17 -48 9 -9 19 -7 45 9 30 18 53 19 53 1 0 -13 -102 -64
-110 -56 -13 13 -82 145 -78 148 4 4 102 66 104 66 1 0 4 -7 7 -15z m-123 -23
c0 -13 -12 -22 -22 -16 -10 6 -1 24 13 24 5 0 9 -4 9 -8z m1085 -32 c3 -5 -1
-10 -10 -10 -9 0 -13 5 -10 10 3 6 8 10 10 10 2 0 7 -4 10 -10z m155 -25 c-7
-8 -18 -15 -24 -15 -6 0 -4 5 4 10 12 8 12 10 -5 10 -18 0 -17 2 5 13 28 14
39 4 20 -18z m-1401 12 c-2 -1 -13 -9 -24 -17 -19 -14 -19 -14 -6 3 7 9 18 17
24 17 6 0 8 -1 6 -3z m169 -88 c48 -64 57 -89 32 -89 -5 0 -25 21 -45 46 -38
51 -41 49 -24 -9 17 -64 8 -72 -53 -41 l-52 26 42 -50 c36 -43 40 -51 27 -62
-9 -7 -17 -11 -18 -9 -2 2 -27 35 -55 72 -29 37 -50 72 -47 77 10 16 43 12 85
-10 44 -22 45 -20 29 46 -9 34 -9 47 1 59 7 8 15 15 19 14 3 0 30 -32 59 -70z
m842 -6 c477 -96 811 -564 760 -1063 -37 -354 -231 -633 -550 -791 -116 -57
-214 -80 -358 -86 -222 -10 -400 39 -577 156 -285 189 -456 540 -431 888 20
282 160 549 377 715 232 177 496 239 779 181z m457 -20 c-31 -16 -40 -6 -20
21 16 21 19 22 30 7 9 -13 8 -18 -10 -28z m243 -75 c0 -21 -26 -16 -54 11 -29
28 -32 29 -43 13 -9 -14 -6 -22 14 -44 36 -38 19 -58 -18 -22 -28 27 -30 27
-47 10 -16 -16 -15 -19 17 -47 24 -23 30 -34 22 -42 -8 -8 -23 1 -56 33 l-45
44 61 62 62 63 43 -37 c24 -20 44 -40 44 -44z m-8 -41 c-12 -7 -19 -17 -15
-22 4 -4 3 -5 -3 -2 -6 3 -17 -3 -24 -14 -8 -10 -19 -19 -24 -19 -5 0 0 10 12
23 12 13 19 27 15 32 -5 4 -3 6 2 2 6 -3 17 -2 25 4 8 5 20 9 25 8 6 0 0 -5
-13 -12z m46 -84 c-9 -38 -15 -69 -14 -70 1 -1 19 11 39 28 31 25 40 29 52 19
12 -10 4 -21 -53 -66 -37 -30 -71 -54 -75 -54 -17 0 -16 28 3 89 11 36 18 66
16 68 -1 2 -21 -13 -44 -33 -37 -32 -62 -38 -62 -15 0 17 135 120 144 110 6
-5 4 -34 -6 -76z m77 59 c5 -12 15 -22 22 -22 7 0 13 -4 13 -10 0 -22 -41 -9
-50 16 -6 14 -14 22 -20 19 -11 -7 -14 8 -3 19 11 11 27 1 38 -22z m-30 -53
c-4 -5 -12 -9 -18 -8 -9 0 -8 2 1 6 6 2 9 10 6 15 -4 7 -2 8 5 4 6 -4 9 -12 6
-17z m-1658 -15 c-9 -9 -28 6 -21 18 4 6 10 6 17 -1 6 -6 8 -13 4 -17z m1754
-133 c20 -20 29 -39 29 -61 0 -43 -47 -90 -90 -90 -41 0 -90 47 -90 87 0 81
94 121 151 64z m-21 -171 c-8 -5 -19 -10 -25 -10 -5 0 -3 5 5 10 8 5 20 10 25
10 6 0 3 -5 -5 -10z m104 -12 c21 -29 21 -88 2 -88 -10 0 -16 13 -18 38 -5 56
-32 50 -36 -8 -4 -54 -16 -70 -53 -70 -37 0 -59 33 -59 86 0 36 3 41 18 37 14
-3 17 -12 14 -34 -4 -28 11 -59 29 -59 5 0 9 20 9 44 0 50 19 76 55 76 13 0
31 -10 39 -22z m-182 -10 c-7 -7 -12 -8 -12 -2 0 14 12 26 19 19 2 -3 -1 -11
-7 -17z"/>
<path d="M2539 2857 c6 -8 7 -18 3 -22 -4 -5 -1 -5 6 -1 10 6 10 11 1 22 -6 8
-14 14 -16 14 -3 0 0 -6 6 -13z"/>
<path d="M3655 2861 c-3 -5 -2 -12 3 -15 5 -3 9 1 9 9 0 17 -3 19 -12 6z"/>
<path d="M3425 2819 c-4 -6 -5 -12 -2 -15 2 -3 7 2 10 11 7 17 1 20 -8 4z"/>
<path d="M3846 2718 c3 -5 10 -6 15 -3 13 9 11 12 -6 12 -8 0 -12 -4 -9 -9z"/>
<path d="M3956 2618 c3 -5 10 -6 15 -3 13 9 11 12 -6 12 -8 0 -12 -4 -9 -9z"/>
<path d="M2600 2610 c-8 -5 -12 -12 -9 -15 4 -3 12 1 19 10 14 17 11 19 -10 5z"/>
<path d="M4033 2555 c0 -7 6 -11 14 -8 7 3 13 6 13 8 0 2 -6 5 -13 8 -8 3 -14
-1 -14 -8z"/>
<path d="M2063 2495 c-11 -8 -30 -32 -40 -54 l-20 -40 23 -22 c13 -12 21 -26
18 -30 -9 -15 -22 -10 -20 7 0 9 -6 19 -14 21 -12 4 -13 3 -1 -5 15 -11 7 -32
-12 -32 -17 0 -77 -55 -78 -72 -1 -7 -2 -20 -3 -28 -1 -8 4 -29 10 -47 7 -17
9 -35 6 -39 -4 -4 -2 -5 3 -2 6 3 25 -7 44 -23 27 -22 32 -31 23 -42 -7 -8 -9
-16 -6 -19 7 -8 -57 15 -73 25 -7 4 -9 15 -6 24 6 15 5 16 -9 3 -9 -8 -12 -16
-7 -18 5 -2 9 -8 9 -13 0 -6 -8 -6 -19 1 -15 7 -23 6 -34 -5 -8 -8 -17 -12
-20 -9 -3 3 -3 -4 0 -15 3 -12 9 -24 14 -26 4 -3 6 -12 3 -19 -3 -8 -1 -17 5
-21 7 -4 8 0 4 11 -5 13 -2 15 18 9 13 -4 26 -11 29 -14 3 -4 30 -14 60 -23
50 -16 55 -16 72 -1 10 9 18 25 18 35 0 12 4 16 12 12 6 -4 8 -3 5 3 -4 6 -1
16 7 22 10 9 12 21 5 49 -8 37 -7 40 33 62 10 6 15 17 12 25 -4 8 -1 15 5 15
6 0 10 6 9 13 -2 6 5 11 14 11 10 -1 15 2 12 7 -3 5 -12 9 -21 9 -13 0 -13 3
-3 16 11 12 11 14 1 12 -7 -2 -19 8 -28 22 -14 23 -14 24 1 6 14 -18 70 -31
60 -15 -2 4 12 21 32 39 20 17 33 34 30 37 -3 3 2 12 12 20 9 8 11 12 5 8 -8
-4 -13 1 -13 13 0 10 -9 27 -20 37 -11 10 -18 21 -15 24 6 10 -58 7 -75 -3 -9
-6 -6 1 5 14 11 13 14 20 7 16 -7 -4 -15 -1 -18 8 -8 20 -43 21 -71 1z m57
-16 c0 -6 -11 -20 -25 -31 -26 -20 -32 -42 -15 -53 5 -3 28 8 51 24 32 24 45
28 60 21 49 -27 43 -82 -14 -124 -21 -16 -30 -17 -39 -8 -10 10 -6 18 20 38
33 26 43 54 18 54 -7 0 -25 -9 -39 -20 -30 -24 -60 -26 -81 -4 -23 22 -20 48
10 83 26 31 54 41 54 20z m-29 -188 c40 -40 39 -82 -1 -123 -27 -26 -36 -30
-68 -25 -77 13 -108 98 -56 151 37 37 86 35 125 -3z m-23 -193 c-3 -7 -13 -36
-22 -64 l-17 -51 -81 29 c-94 33 -92 32 -85 52 5 12 16 10 72 -10 77 -28 85
-29 85 -10 0 29 20 66 36 66 9 0 14 -6 12 -12z"/>
<path d="M1992 2274 c-47 -33 -13 -98 49 -92 27 2 36 9 44 32 8 25 6 31 -18
52 -33 28 -45 29 -75 8z m32 -16 c-5 -8 -2 -9 9 -5 10 3 18 2 18 -3 5 -35 2
-43 -14 -46 -10 -1 -14 2 -10 9 4 7 0 8 -11 4 -9 -4 -14 -3 -11 2 3 5 0 13 -6
17 -9 5 -7 11 6 21 23 16 28 17 19 1z"/>
<path d="M1946 2433 c-6 -14 -5 -15 5 -6 7 7 10 15 7 18 -3 3 -9 -2 -12 -12z"/>
<path d="M2200 2289 c0 -5 5 -7 10 -4 6 3 10 8 10 11 0 2 -4 4 -10 4 -5 0 -10
-5 -10 -11z"/>
<path d="M4331 1764 c0 -11 3 -14 6 -6 3 7 2 16 -1 19 -3 4 -6 -2 -5 -13z"/>
<path d="M1847 1742 c-20 -22 -39 -72 -27 -72 5 0 12 -9 15 -20 4 -11 11 -18
16 -14 6 3 7 -5 3 -23 -6 -27 -6 -28 11 -8 l17 20 -6 -20 c-6 -19 -5 -19 8 -2
8 11 28 19 48 19 18 1 27 3 21 5 -10 4 -10 10 -2 24 5 11 15 16 21 13 7 -5 8
-2 3 6 -6 10 -4 12 9 7 10 -4 15 -3 11 3 -3 6 -13 10 -21 10 -8 0 -14 6 -12
13 1 6 -6 22 -17 35 -24 27 -75 30 -98 4z m89 -27 c14 -22 15 -30 4 -50 -15
-28 -40 -36 -66 -22 -37 20 -45 55 -18 81 24 24 61 20 80 -9z"/>
<path d="M4155 1750 c-4 -6 -9 -8 -13 -6 -4 2 -8 -7 -9 -21 0 -14 -7 -29 -15
-34 -11 -7 -11 -9 1 -9 11 0 11 -3 1 -15 -7 -9 -10 -18 -6 -22 3 -3 6 0 6 7 0
9 7 6 20 -7 10 -12 29 -24 40 -28 11 -4 17 -11 14 -17 -4 -7 -2 -8 5 -4 6 4 9
12 6 17 -9 13 9 11 25 -3 12 -11 12 -10 1 5 -7 9 -11 18 -7 18 3 1 10 2 15 3
31 4 37 60 11 97 -17 22 -29 29 -55 29 -19 0 -37 -5 -40 -10z m81 -35 c34 -53
-22 -102 -71 -63 -29 23 -32 44 -8 70 23 26 59 23 79 -7z"/>
<path d="M2180 1161 c0 -6 4 -13 10 -16 6 -3 7 1 4 9 -7 18 -14 21 -14 7z"/>
<path d="M1885 1080 c-3 -5 -1 -10 4 -10 6 0 11 5 11 10 0 6 -2 10 -4 10 -3 0
-8 -4 -11 -10z"/>
<path d="M2066 857 c3 -10 9 -15 12 -12 3 3 0 11 -7 18 -10 9 -11 8 -5 -6z"/>
<path d="M3589 848 c-5 -16 -4 -46 2 -42 4 2 7 13 6 24 -1 17 -5 26 -8 18z"/>
<path d="M3968 773 c7 -3 16 -2 19 1 4 3 -2 6 -13 5 -11 0 -14 -3 -6 -6z"/>
<path d="M2131 753 c7 -12 15 -20 18 -17 3 2 -3 12 -13 22 -17 16 -18 16 -5
-5z"/>
<path d="M2216 702 c-3 -5 1 -15 8 -21 11 -10 14 -9 12 3 -3 21 -13 29 -20 18z"/>
<path d="M3906 688 c3 -5 10 -6 15 -3 13 9 11 12 -6 12 -8 0 -12 -4 -9 -9z"/>
<path d="M2466 497 c3 -10 9 -15 12 -12 3 3 0 11 -7 18 -10 9 -11 8 -5 -6z"/>
<path d="M2944 2898 c3 -13 6 -27 6 -31 0 -5 12 -7 28 -5 21 2 27 8 27 28 0
21 -5 26 -34 28 -31 3 -33 2 -27 -20z"/>
<path d="M2752 2878 c-27 -33 -13 -95 24 -104 30 -8 64 19 64 50 0 50 -60 87
-88 54z m58 -29 c4 -8 4 -24 -1 -37 -7 -19 -12 -21 -29 -12 -11 6 -20 18 -20
26 0 8 4 13 9 10 5 -4 7 3 4 13 -4 14 0 19 12 17 10 -1 21 -9 25 -17z"/>
<path d="M2878 2625 c-328 -62 -604 -306 -713 -628 -48 -142 -59 -354 -26
-512 73 -356 343 -631 709 -722 97 -24 304 -24 402 1 431 109 718 477 720 921
0 263 -95 500 -276 680 -117 117 -270 206 -432 250 -83 23 -289 28 -384 10z
m244 -19 c-3 -5 6 -6 19 -3 13 3 53 -1 89 -9 36 -9 73 -16 82 -17 9 -1 14 -5
12 -9 -3 -4 3 -8 14 -8 21 0 192 -76 192 -86 0 -3 -5 -2 -12 2 -7 4 -8 3 -4
-5 4 -6 11 -9 16 -6 15 9 39 -6 33 -21 -3 -9 -12 -13 -21 -9 -12 4 -13 3 -2
-10 11 -14 14 -13 26 2 13 17 16 16 38 -9 14 -16 28 -28 31 -28 9 0 65 -63 65
-72 0 -5 7 -8 15 -8 8 0 21 -13 30 -29 8 -16 21 -35 29 -43 29 -29 76 -124 71
-146 -2 -13 0 -20 6 -17 5 4 6 11 3 17 -4 7 -2 8 5 4 6 -4 9 -12 6 -17 -4 -5
-1 -9 6 -9 8 0 8 -4 -1 -16 -11 -12 -11 -15 1 -12 8 2 13 -4 13 -14 -1 -10 3
-15 8 -12 5 3 8 0 7 -7 -2 -8 5 -40 15 -71 10 -32 16 -68 14 -82 -3 -14 -2
-23 2 -21 21 13 11 -345 -10 -385 -5 -10 -10 -28 -10 -40 0 -12 -4 -18 -10
-15 -5 3 -7 0 -4 -8 3 -8 -2 -22 -11 -31 -9 -9 -12 -16 -6 -16 6 0 -2 -21 -17
-47 -16 -27 -35 -63 -43 -81 -9 -20 -19 -30 -28 -27 -11 5 -12 3 -1 -10 11
-13 10 -14 -4 -9 -12 5 -15 2 -10 -12 5 -16 4 -16 -5 -4 -6 8 -11 24 -11 35 0
17 -2 17 -10 5 -9 -13 -10 -13 -10 0 0 16 -56 20 -79 5 -9 -5 -9 -2 0 13 7 12
18 18 24 15 5 -4 7 -3 3 1 -3 4 1 16 10 26 36 40 43 51 37 60 -4 6 1 13 10 16
13 6 14 8 3 15 -10 7 -11 9 0 9 7 0 10 5 7 10 -3 6 -2 10 3 10 9 0 20 27 28
68 1 8 6 17 10 20 4 4 4 -1 1 -11 -4 -10 -3 -16 2 -13 5 3 11 15 14 27 4 15 2
19 -9 15 -21 -8 -17 0 14 30 15 15 18 21 8 13 -18 -13 -19 -12 -14 7 5 18 2
21 -15 16 -12 -3 -33 -18 -49 -34 -28 -29 -45 -37 -32 -15 5 7 1 7 -12 -3 -29
-22 -30 -24 -10 -16 15 5 17 4 7 -8 -6 -8 -23 -17 -36 -20 -14 -4 -25 -11 -25
-16 0 -5 -7 -6 -17 -3 -12 5 -14 3 -8 -7 6 -9 4 -11 -5 -5 -7 4 -15 3 -19 -3
-7 -12 -38 -20 -81 -21 -20 -1 -22 -3 -10 -11 12 -8 8 -10 -15 -10 -16 1 -57
-4 -90 -10 -46 -9 -79 -9 -142 1 -45 7 -80 16 -77 20 3 5 -1 6 -9 3 -8 -3 -20
2 -27 10 -7 9 -17 13 -23 9 -6 -4 -8 0 -4 10 5 14 2 15 -19 7 -14 -6 -23 -6
-20 -1 5 8 -29 25 -46 22 -11 -1 -10 13 2 25 7 7 6 11 -4 11 -8 0 -12 -5 -9
-10 3 -5 0 -7 -8 -5 -8 3 -13 11 -11 17 1 7 -2 10 -6 7 -5 -3 -17 3 -27 14
-10 11 -22 17 -26 14 -5 -3 -6 3 -2 12 5 13 3 16 -9 11 -17 -6 -48 21 -48 41
0 7 -5 12 -11 12 -5 0 -7 5 -4 10 3 6 2 10 -3 10 -5 0 -12 9 -15 21 -4 14 -10
18 -19 13 -7 -4 -10 -4 -6 1 4 4 -2 19 -12 33 -11 13 -20 33 -20 44 0 12 -4
16 -12 12 -7 -4 -8 -3 -4 5 4 6 2 18 -4 26 -7 8 -12 30 -13 49 0 19 -5 32 -9
30 -5 -3 -9 12 -9 33 0 21 0 67 -1 103 0 76 5 128 16 153 5 9 6 24 2 32 -3 8
2 21 10 30 8 8 12 20 8 26 -4 7 -3 9 3 6 12 -8 26 20 17 34 -3 5 -1 9 5 9 5 0
15 16 21 35 6 19 15 33 20 30 4 -3 10 5 14 18 5 18 8 20 16 7 10 -13 11 -13 9
0 -3 30 1 41 13 34 6 -4 8 -3 4 4 -3 6 3 13 14 17 11 4 18 11 15 16 -4 5 -1 9
4 9 6 0 11 8 11 18 -1 11 -20 -3 -60 -45 -176 -186 -219 -485 -103 -718 80
-159 225 -282 398 -336 88 -28 230 -30 325 -5 86 23 214 92 255 138 18 20 35
34 38 32 12 -12 -87 -236 -126 -284 -26 -33 -57 -37 -101 -16 -56 28 -156 28
-211 -1 -47 -25 -97 -75 -93 -93 2 -7 -4 -15 -12 -17 -12 -4 -13 -3 -1 5 24
17 -25 34 -87 31 l-57 -3 -55 56 c-91 92 -195 118 -310 78 -30 -10 -56 -15
-58 -10 -2 5 -16 27 -33 49 -36 51 -100 98 -151 112 -44 11 -131 14 -147 4
-15 -8 -30 33 -47 125 -26 142 -13 280 39 422 38 105 85 175 177 268 67 68
104 96 175 132 50 25 120 54 157 64 37 10 64 22 62 26 -7 11 -74 -1 -93 -16
-11 -8 -13 -8 -8 1 5 7 1 10 -10 8 -10 -2 -21 -4 -25 -4 -5 -1 -8 -8 -8 -17 0
-11 -6 -14 -21 -9 -16 6 -20 4 -13 -6 6 -10 3 -10 -11 1 -10 8 -16 10 -12 4 8
-14 -35 -45 -64 -47 -10 -1 -19 -5 -19 -9 0 -5 -12 -13 -26 -18 -15 -6 -22
-14 -18 -22 4 -7 3 -8 -4 -4 -6 3 -16 -3 -22 -14 -8 -14 -17 -19 -28 -15 -9 3
-13 3 -10 -1 11 -10 -20 -36 -33 -28 -8 5 -9 3 -4 -5 9 -16 -44 -73 -63 -66
-7 3 -10 0 -7 -6 4 -6 14 -8 22 -5 8 4 2 -9 -13 -27 -16 -19 -32 -32 -36 -30
-8 4 -12 -11 -9 -35 1 -7 -5 -15 -13 -18 -9 -3 -14 -10 -11 -14 3 -4 -2 -13
-10 -20 -7 -6 -11 -19 -8 -27 4 -10 2 -14 -4 -10 -7 4 -13 -6 -16 -26 -7 -40
-30 -120 -37 -127 -13 -13 -18 -177 -6 -191 8 -9 8 -10 0 -6 -12 7 -4 -69 10
-91 4 -6 2 -21 -5 -34 -9 -17 -9 -24 5 -33 8 -7 17 -23 18 -36 2 -13 10 -30
18 -36 13 -11 13 -14 0 -23 -8 -5 -19 -10 -25 -10 -5 0 -3 5 5 10 8 5 11 10 7
10 -19 0 -89 -80 -84 -95 4 -8 3 -15 -1 -15 -25 0 -71 187 -78 319 -5 97 11
267 27 287 5 6 6 13 3 16 -3 4 1 19 9 35 8 15 12 34 9 42 -3 10 0 12 12 8 9
-4 16 -2 16 3 0 6 -5 10 -11 10 -5 0 -7 5 -4 10 4 6 11 8 16 5 5 -3 6 0 3 8
-3 8 0 18 5 22 6 3 9 11 6 16 -4 5 8 30 24 55 17 25 26 42 19 38 -7 -5 1 8 17
28 17 19 33 33 37 31 6 -3 21 30 23 50 0 4 3 7 8 7 10 0 47 38 47 48 0 17 39
44 51 36 7 -4 10 -3 5 4 -9 15 15 21 39 10 19 -9 19 -9 1 6 -16 13 -17 18 -6
31 7 8 16 13 20 10 4 -3 19 5 32 18 39 35 70 51 66 35 -2 -8 2 -15 7 -16 6 -1
9 9 9 23 -1 13 2 23 6 20 11 -7 120 41 112 50 -4 5 -2 5 5 1 18 -10 98 5 81
15 -21 14 9 11 35 -3 19 -9 20 -9 10 3 -9 12 0 14 60 17 39 1 73 5 76 7 8 9
109 0 103 -9z m-607 -1230 c55 -25 94 -65 127 -130 11 -22 22 -43 24 -45 2 -2
25 7 51 21 63 33 118 41 181 24 70 -18 117 -52 153 -110 25 -41 33 -47 52 -41
48 15 91 17 128 5 l39 -13 36 42 c20 23 50 49 68 58 47 24 132 22 184 -5 38
-19 47 -21 86 -10 29 8 54 8 75 2 l32 -9 -53 -63 c-236 -279 -621 -375 -966
-242 -171 66 -334 205 -430 367 -28 48 -52 96 -52 105 0 17 41 44 90 59 51 15
124 9 175 -15z m-255 -116 c0 -5 -2 -10 -4 -10 -3 0 -8 5 -11 10 -3 6 -1 10 4
10 6 0 11 -4 11 -10z m430 -16 c0 -8 -19 -13 -24 -6 -3 5 1 9 9 9 8 0 15 -2
15 -3z m-379 -71 c5 -7 7 -13 3 -13 -9 0 45 -71 70 -93 15 -13 16 -16 4 -11
-21 7 -138 162 -138 181 1 7 17 -10 61 -64z m1422 -79 c-35 -32 -40 -30 -11 5
13 15 26 26 30 24 5 -2 -4 -15 -19 -29z m-1308 -64 c-3 -4 2 -10 10 -14 17 -6
20 -26 4 -26 -5 0 -8 4 -5 9 4 5 1 11 -6 13 -6 2 -12 12 -14 21 -1 9 2 15 7
11 5 -3 7 -9 4 -14z m1285 16 c0 -2 -7 -7 -16 -10 -8 -3 -12 -2 -9 4 6 10 25
14 25 6z m-1226 -77 c20 3 26 0 21 -9 -8 -13 -45 6 -45 23 0 8 3 8 9 -1 4 -8
11 -13 15 -13z m1096 -30 c0 -5 -5 -7 -10 -4 -6 3 -13 -1 -16 -9 -3 -9 -11
-16 -17 -16 -5 0 -2 9 8 20 20 22 35 26 35 9z m-78 -51 c-18 -18 -24 -20 -34
-10 -11 11 -10 12 3 7 9 -3 22 1 29 10 7 8 15 15 18 15 4 0 -4 -10 -16 -22z
m-872 -3 c0 -1 -12 -2 -26 -2 -17 0 -22 2 -13 7 10 7 39 3 39 -5z m813 -26
c-6 -6 -19 -9 -29 -6 -16 4 -15 5 4 6 12 0 22 6 22 13 0 6 3 8 7 5 4 -4 2 -12
-4 -18z m-742 -16 c13 -16 12 -17 -3 -4 -17 13 -22 21 -14 21 2 0 10 -8 17
-17z m79 -35 c0 -13 -13 -9 -40 12 l-25 20 33 -12 c17 -7 32 -16 32 -20z m550
2 c-8 -5 -22 -9 -30 -9 -10 0 -8 3 5 9 27 12 43 12 25 0z m-460 -20 c13 -8 13
-10 -2 -10 -9 0 -20 5 -23 10 -8 13 5 13 25 0z m377 -6 c-3 -3 -12 -4 -19 -1
-8 3 -5 6 6 6 11 1 17 -2 13 -5z m-260 -10 c-3 -3 -12 -4 -19 -1 -8 3 -5 6 6
6 11 1 17 -2 13 -5z m190 0 c-3 -3 -12 -4 -19 -1 -8 3 -5 6 6 6 11 1 17 -2 13
-5z"/>
<path d="M3208 2583 c7 -3 16 -2 19 1 4 3 -2 6 -13 5 -11 0 -14 -3 -6 -6z"/>
<path d="M3580 2426 c0 -2 8 -10 18 -17 15 -13 16 -12 3 4 -13 16 -21 21 -21
13z"/>
<path d="M2935 2411 c-6 -11 9 -23 19 -14 9 9 7 23 -3 23 -6 0 -12 -4 -16 -9z"/>
<path d="M2420 2319 c0 -5 5 -7 10 -4 6 3 10 8 10 11 0 2 -4 4 -10 4 -5 0 -10
-5 -10 -11z"/>
<path d="M3446 2297 c3 -10 9 -15 12 -12 3 3 0 11 -7 18 -10 9 -11 8 -5 -6z"/>
<path d="M3472 2289 c3 -19 -29 -59 -47 -59 -7 0 -17 -6 -23 -13 -12 -14 7
-47 27 -47 7 0 9 -5 5 -12 -4 -7 -3 -8 4 -4 7 4 12 1 12 -6 0 -10 2 -10 9 1 7
11 11 10 19 -5 5 -11 7 -24 5 -30 -4 -13 24 -27 37 -19 5 3 11 19 15 35 4 17
10 30 15 30 5 0 16 3 26 7 13 5 15 3 9 -8 -4 -8 -4 -11 0 -6 9 7 18 47 11 47
-1 0 -17 -5 -34 -11 -24 -8 -34 -20 -45 -52 l-14 -42 -7 36 c-8 43 -18 54 -66
67 -21 6 -27 11 -15 11 37 2 68 26 80 61 l12 35 12 -37 c9 -28 21 -40 53 -53
22 -8 42 -15 43 -13 2 2 -5 14 -16 27 -10 13 -19 18 -19 12 0 -21 -39 12 -49
41 -8 22 -16 27 -36 26 -18 -2 -25 -8 -23 -19z"/>
<path d="M3700 2273 c0 -4 5 -15 10 -23 8 -13 10 -13 10 2 0 9 -4 20 -10 23
-5 3 -10 3 -10 -2z"/>
<path d="M2526 2228 c3 -5 10 -6 15 -3 13 9 11 12 -6 12 -8 0 -12 -4 -9 -9z"/>
<path d="M3775 2189 c-4 -6 -5 -12 -2 -15 2 -3 7 2 10 11 7 17 1 20 -8 4z"/>
<path d="M3228 2171 c-8 -12 -17 -19 -19 -17 -2 2 -4 -8 -5 -23 -1 -15 -8 -43
-17 -61 -9 -18 -14 -36 -12 -41 5 -7 -49 -42 -67 -44 -3 0 -9 -3 -13 -7 -4 -4
-14 -4 -23 -1 -10 4 -13 2 -8 -5 4 -7 3 -12 -3 -12 -5 0 -13 5 -16 10 -3 6
-16 10 -28 9 -20 -1 -20 -2 3 -8 l25 -7 -27 -7 c-48 -13 -20 -61 42 -71 22 -3
40 -11 40 -17 0 -6 10 -23 22 -37 12 -15 18 -19 15 -9 -9 24 19 22 33 -3 6
-11 20 -49 31 -85 17 -57 23 -64 43 -63 16 2 22 7 18 17 -3 8 -1 12 4 9 5 -4
10 8 11 25 2 18 7 33 13 35 5 2 10 13 10 25 0 17 2 19 9 8 7 -11 10 -7 13 15
2 23 9 30 33 35 19 4 22 7 10 8 -17 1 -15 4 9 16 15 8 32 12 37 9 5 -3 9 0 9
6 0 6 4 9 8 6 11 -7 72 31 72 44 0 5 -7 10 -16 10 -8 0 -13 4 -9 9 6 11 -6 20
-46 31 -18 5 -27 5 -24 -1 9 -14 -6 -10 -50 14 -35 20 -42 30 -60 89 -23 76
-52 119 -40 58 14 -68 46 -138 70 -154 13 -9 54 -26 91 -38 l67 -22 -59 -22
c-32 -13 -64 -23 -70 -23 -28 -2 -64 -53 -87 -127 -14 -44 -28 -72 -30 -64 -3
8 -15 45 -27 81 -11 37 -30 75 -40 84 -11 10 -54 30 -95 44 l-75 27 70 23 c39
12 81 32 95 44 14 13 37 57 54 107 31 88 33 106 9 71z m-98 -321 c0 -5 -2 -10
-4 -10 -3 0 -8 5 -11 10 -3 6 -1 10 4 10 6 0 11 -4 11 -10z"/>
<path d="M3800 2171 c0 -6 4 -13 10 -16 6 -3 7 1 4 9 -7 18 -14 21 -14 7z"/>
<path d="M2641 2104 c0 -11 3 -14 6 -6 3 7 2 16 -1 19 -3 4 -6 -2 -5 -13z"/>
<path d="M2466 2095 c-9 -26 -7 -32 5 -12 6 10 9 21 6 23 -2 3 -7 -2 -11 -11z"/>
<path d="M3283 1955 c0 -8 4 -12 9 -9 5 3 6 10 3 15 -9 13 -12 11 -12 -6z"/>
<path d="M3162 1947 c10 -8 14 -18 10 -23 -4 -4 1 -2 11 5 9 7 17 16 17 19 0
3 -3 2 -6 -1 -4 -3 -16 -2 -28 4 -19 9 -19 9 -4 -4z"/>
<path d="M3136 1902 c-3 -5 1 -9 9 -9 8 0 12 4 9 9 -3 4 -7 8 -9 8 -2 0 -6 -4
-9 -8z"/>
<path d="M3296 1902 c-3 -4 4 -9 15 -9 23 -2 25 3 4 10 -8 4 -16 3 -19 -1z"/>
<path d="M3540 1799 c0 -5 5 -7 10 -4 6 3 10 8 10 11 0 2 -4 4 -10 4 -5 0 -10
-5 -10 -11z"/>
<path d="M3165 1780 c3 -5 8 -10 11 -10 2 0 4 5 4 10 0 6 -5 10 -11 10 -5 0
-7 -4 -4 -10z"/>
<path d="M3554 1768 c-3 -10 -10 -16 -15 -13 -5 4 -9 1 -9 -4 0 -6 -7 -11 -16
-11 -8 0 -12 -4 -9 -10 13 -21 45 -10 51 16 l7 27 14 -27 c14 -27 46 -35 59
-14 5 7 2 9 -9 5 -18 -7 -41 17 -34 36 3 8 -3 13 -14 13 -11 0 -22 -8 -25 -18z"/>
<path d="M3650 1746 c0 -2 7 -7 16 -10 8 -3 12 -2 9 4 -6 10 -25 14 -25 6z"/>
<path d="M3485 1710 c3 -5 8 -10 11 -10 2 0 4 5 4 10 0 6 -5 10 -11 10 -5 0
-7 -4 -4 -10z"/>
<path d="M3654 1712 c3 -5 0 -13 -6 -15 -9 -4 -10 -6 -1 -6 17 -1 25 16 12 25
-7 4 -9 3 -5 -4z"/>
<path d="M3521 1701 c-10 -7 -8 -12 10 -25 13 -9 19 -16 14 -16 -6 0 -1 -6 9
-12 16 -9 22 -7 32 8 7 10 20 26 29 35 14 15 14 16 -9 12 -16 -3 -29 -15 -35
-32 -8 -23 -10 -23 -10 -5 -1 27 -22 45 -40 35z"/>
<path d="M2810 1568 c14 -16 13 -31 -2 -22 -7 5 -8 3 -3 -5 5 -9 10 -10 18 -2
8 8 6 15 -6 26 -9 8 -12 10 -7 3z"/>
<path d="M2890 1576 c0 -2 8 -10 18 -17 15 -13 16 -12 3 4 -13 16 -21 21 -21
13z"/>
<path d="M2840 1536 c0 -2 8 -10 18 -17 15 -13 16 -12 3 4 -13 16 -21 21 -21
13z"/>
<path d="M2275 1470 c3 -5 8 -10 11 -10 2 0 4 5 4 10 0 6 -5 10 -11 10 -5 0
-7 -4 -4 -10z"/>
<path d="M2910 1460 c0 -5 5 -10 11 -10 5 0 7 -5 3 -12 -4 -7 -3 -8 5 -4 9 6
9 11 0 22 -14 17 -19 18 -19 4z"/>
<path d="M2193 1402 c-1 -22 0 -24 9 -8 6 10 6 22 2 26 -5 5 -10 -3 -11 -18z"/>
<path d="M3517 1423 c-10 -9 -9 -23 1 -23 5 0 9 7 9 15 0 17 -1 18 -10 8z"/>
<path d="M2696 1333 c-6 -14 -5 -15 5 -6 7 7 10 15 7 18 -3 3 -9 -2 -12 -12z"/>
<path d="M2727 1339 c7 -7 15 -10 18 -7 3 3 -2 9 -12 12 -14 6 -15 5 -6 -5z"/>
<path d="M4043 2279 c-32 -12 -48 -46 -34 -75 22 -48 111 -21 111 33 0 34 -40
56 -77 42z m51 -28 c3 -4 -2 -17 -10 -27 -9 -10 -13 -12 -9 -4 4 8 -3 4 -15
-10 -12 -14 -19 -19 -15 -12 3 6 2 12 -3 12 -6 0 -12 7 -15 14 -4 10 -1 13 9
9 8 -3 14 -2 13 3 -1 5 -1 12 0 17 1 10 39 9 45 -2z"/>
<path d="M4190 2536 c0 -2 8 -10 18 -17 15 -13 16 -12 3 4 -13 16 -21 21 -21
13z"/>
<path d="M4305 2349 c-4 -6 -4 -13 -1 -16 3 -4 6 -1 6 6 0 7 5 9 12 5 7 -4 8
-3 4 4 -9 15 -13 15 -21 1z"/>
<path d="M1800 2389 c0 -5 5 -7 10 -4 6 3 10 8 10 11 0 2 -4 4 -10 4 -5 0 -10
-5 -10 -11z"/>
<path d="M1715 2220 c3 -5 8 -10 11 -10 2 0 4 5 4 10 0 6 -5 10 -11 10 -5 0
-7 -4 -4 -10z"/>
<path d="M4130 770 c-9 -6 -10 -10 -3 -10 6 0 15 5 18 10 8 12 4 12 -15 0z"/>
<path d="M4040 2856 c0 -2 8 -10 18 -17 15 -13 16 -12 3 4 -13 16 -21 21 -21
13z"/>
</g>
</svg>
